<?xml version="1.0" encoding="utf-8"?>
<!-- Generator: Adobe Adobe Illustrator 24.2.0, SVG Export Plug-In . SVG Version: 6.00 Build 0)  -->
<svg version="1.1" id="Layer_1" xmlns="http://www.w3.org/2000/svg" xmlns:xlink="http://www.w3.org/1999/xlink" x="0px" y="0px"
	 width="300px" height="300px" viewBox="0 0 300 300" style="enable-background:new 0 0 300 300;" xml:space="preserve">
<style type="text/css">
	.st0{fill:#440006;}
</style>
<g transform="translate(0.000000,300.000000) scale(0.100000,-0.100000)">
	<path class="st0" d="M1390,2707c-68-16-116-41-130-68c-7-13-11-104-9-267l2-247l-138-6c-156-7-164-11-166-83c-1-23-2-54-3-71
		c-2-16-4-173-4-348l-2-317H554c-252,1-390-3-398-9c-13-11-36-83-56-171c-6-25-13-108-17-185c-6-152,6-292,37-421
		c22-95,41-114,111-114c47,0,49-1,49-27c0-49,33-89,83-102c67-16,2269-16,2331,1c47,12,68,39,81,101c5,24,10,27,45,27
		c64,0,88,17,106,74c60,199,59,583-2,768c-9,26-20,50-25,53c-4,3-184,6-398,5h-390l-3,389c-3,352-5,392-20,407c-14,14-42,18-153,22
		l-135,5v258c0,297,3,285-92,315C1639,2717,1462,2723,1390,2707z M1685,2628l40-13l3-248l2-247h-200h-200v249v250l58,11
		c31,7,62,14,67,16C1476,2654,1647,2641,1685,2628z M2037,1592c-3-426-5-462-24-532c-51-184-93-251-194-319c-73-49-130-67-236-76
		c-162-14-296,24-395,114c-56,50-89,103-118,187c-51,144-53,165-57,622c-3,239-2,440,1,447c4,12,90,14,516,14h511L2037,1592z
		 M958,1139c16-114,62-257,104-322c64-99,189-185,305-207c94-19,324-8,389,17c190,74,293,228,343,509l17,95h364c319-1,366-3,377-17
		c6-9,19-58,28-110c23-127,16-442-12-554l-18-75l-1327-3l-1326-2l-17,71c-45,200-42,502,6,656l10,33l362,2c199,2,366,3,372,2
		C940,1234,950,1191,958,1139z M2705,391c3-5,0-21-6-35l-12-26H1529c-1135,0-1159,0-1169,19c-5,11-10,27-10,35c0,14,115,16,1174,16
		C2233,400,2701,396,2705,391z"/>
	<path class="st0" d="M1441,2307c-15-15-14-70,1-85c19-19,153-16,172,4c16,16,13,56-6,80C1597,2321,1455,2321,1441,2307z"/>
</g>
</svg>
