<?xml version="1.0" encoding="utf-8"?>
<!-- Generator: Adobe Adobe Illustrator 24.2.0, SVG Export Plug-In . SVG Version: 6.00 Build 0)  -->
<svg version="1.1" id="Layer_1" xmlns="http://www.w3.org/2000/svg" xmlns:xlink="http://www.w3.org/1999/xlink" x="0px" y="0px"
	 width="300px" height="300px" viewBox="0 0 300 300" style="enable-background:new 0 0 300 300;" xml:space="preserve">
<style type="text/css">
	.st0{fill:#440006;}
</style>
<g transform="translate(0.000000,300.000000) scale(0.100000,-0.100000)">
	<path class="st0" d="M1318,2580c-59-10-150-39-163-52c-6-5-12-164-15-414l-5-406l-105-32c-58-18-154-52-215-76
		c-146-58-510-241-558-280l-37-31v-171c0-164,1-173,25-213c13-23,40-54,60-69c78-60,5-56,1226-56l1120-1l50,28c63,34,115,90,128,140
		c16,58,14,308-3,341c-33,65-451,270-754,372l-147,49l-5,400c-4,353-7,402-21,417c-38,38-144,56-344,60
		C1451,2587,1344,2585,1318,2580z M1639,2520c57-5,128-16,157-25l54-15l2-412c3-353,5-412,18-419c8-4,58-20,110-34s147-46,210-72
		c135-53,435-196,521-248l60-37l-3-94l-3-94H1525H285l-3,89l-3,90l43,32c45,32,326,173,458,229s233,91,325,114l90,23l5,414l5,414
		l55,18c47,16,156,31,250,35C1524,2529,1582,2525,1639,2520z M2770,989c0-31-57-102-102-125c-24-12-194-14-1137-14
		c-609,0-1117,3-1127,6c-54,19-114,87-114,129c0,13,127,15,1240,15C2401,1000,2770,997,2770,989z"/>
</g>
</svg>
