<?xml version="1.0" encoding="utf-8"?>
<!-- Generator: Adobe Adobe Illustrator 24.2.0, SVG Export Plug-In . SVG Version: 6.00 Build 0)  -->
<svg version="1.1" id="Layer_1" xmlns="http://www.w3.org/2000/svg" xmlns:xlink="http://www.w3.org/1999/xlink" x="0px" y="0px"
	 width="300px" height="300px" viewBox="0 0 300 300" style="enable-background:new 0 0 300 300;" xml:space="preserve">
<style type="text/css">
	.st0{fill:#440006;}
</style>
<g transform="translate(0.000000,300.000000) scale(0.100000,-0.100000)">
	<path class="st0" d="M1462,2466c-23-8-58-26-77-41l-35-26v-290v-289l-32-20c-32-19-33-21-38-107l-5-88l-75-6c-91-6-114-18-140-69
		c-17-34-20-59-20-180v-140H778c-189,0-270-4-287-13c-30-15-293-464-321-548c-12-35-22-97-25-152c-2-50-11-114-20-142
		c-27-88-166-80,1405-80c1102,0,1392,3,1402,13s9,25-5,76c-9,35-17,89-17,118c0,137-15,173-188,472c-136,235-145,246-199,253l-43,6
		v64c0,73-18,118-52,127c-46,12-208,6-237-9c-36-18-41-31-41-116v-69h-70h-70v148c0,128-3,151-20,179c-27,46-68,63-145,63h-65v83
		c0,89-2,94-42,120l-28,17v285c0,276-1,286-21,306C1638,2462,1531,2488,1462,2466z M1606,2384l34-16v-257v-256h-115h-115v253v252
		l33,20C1483,2405,1559,2406,1606,2384z M1651,1770c52-27,59-40,59-107v-63h-180h-180v69c0,76,9,88,81,110
		C1474,1792,1619,1786,1651,1770z M1922,1513c16-14,18-33,18-160v-143l-412,2l-413,3l3,145c2,122,5,147,19,158c13,9,107,12,392,12
		C1863,1530,1905,1528,1922,1513z M2405,1210v-125l-92-3l-93-3v124c0,68,3,127,7,131s46,5,93,4l85-3V1210z M2148,1110
		c11-96,17-100,168-100h124l20,33c11,17,20,47,20,65c0,30,2,33,27,30s43-29,160-228c143-244,161-283,170-377l6-63h-130h-131l-28,57
		c-84,173-263,381-413,481l-63,42h-553H973l-71-50C748,892,627,754,521,565l-54-96l-126,3l-126,3l3,52c4,81,24,133,107,275
		c43,73,104,179,137,236l60,102l812-2l811-3L2148,1110z M2125,934c83-62,199-177,251-250c46-65,124-194,124-206c0-5-436-8-970-8
		c-769,0-970,3-970,13c0,19,97,175,150,242c59,74,135,147,219,208l63,47h537l536-1L2125,934z M2852,383c3-10,7-24,7-30
		c1-10-272-13-1333-13H192l5,23c3,12,9,27,14,32c5,7,454,9,1320,8C2774,400,2845,399,2852,383z"/>
	<path class="st0" d="M1408,1319c-24-13-23-46,1-59c32-17,213-13,239,6c26,18,27,27,6,48c-12,13-38,16-122,16
		C1473,1330,1417,1325,1408,1319z"/>
</g>
</svg>
