<?xml version="1.0" encoding="utf-8"?>
<!-- Generator: Adobe Adobe Illustrator 24.2.0, SVG Export Plug-In . SVG Version: 6.00 Build 0)  -->
<svg version="1.1" id="Layer_1" xmlns="http://www.w3.org/2000/svg" xmlns:xlink="http://www.w3.org/1999/xlink" x="0px" y="0px"
	 width="300px" height="300px" viewBox="0 0 300 300" style="enable-background:new 0 0 300 300;" xml:space="preserve">
<style type="text/css">
	.st0{fill:#440006;}
</style>
<g transform="translate(0.000000,300.000000) scale(0.100000,-0.100000)">
	<path class="st0" d="M1130,2765c-9-11-17-161-30-547c-10-293-29-829-41-1190c-18-523-20-660-10-672c20-23,170-92,246-112
		c109-29,372-27,478,4c117,34,233,95,241,127c4,15,2,111-3,213c-6,103-25,630-42,1172c-27,843-33,988-47,1003c-14,16-46,17-397,17
		C1198,2780,1141,2778,1130,2765z M1864,2711c8-12,31-769,24-776c-3-3-117,36-254,86s-296,108-354,129l-105,38l4,259
		c2,176,7,260,15,265C1210,2723,1858,2722,1864,2711z M1515,1989c182-66,342-125,356-130l27-10l7-226c9-260-1-361-47-493
		c-16-47-47-115-68-151c-45-77-148-176-215-209l-47-23l-51,24c-31,14-81,53-122,94c-80,80-138,185-177,320c-22,78-23,89-21,489
		c1,225,4,415,7,423c3,7,9,13,13,13S1334,2056,1515,1989z M1177,994c65-132,173-243,284-294c61-27,81-25,160,16
		c95,50,192,153,250,267c40,80,45,85,50,60c4-16,7-86,8-158c1-71,6-191,10-265s5-156,3-182l-4-46l-76-35c-121-55-210-70-371-65
		c-144,5-245,30-337,82l-39,22l2,139c2,185,14,535,19,535C1138,1070,1156,1036,1177,994z"/>
</g>
</svg>
